<svg version="1.1" id="Layer_1" xmlns="http://www.w3.org/2000/svg" xmlns:xlink="http://www.w3.org/1999/xlink" x="0px" y="0px"
	 width="100%" viewBox="0 0 2560 1440" enable-background="new 0 0 2560 1440" xml:space="preserve">
<path fill="#FFFFFF" opacity="0" stroke="none" 
	d="
M1664.000000,1441.000000 
	C1109.333374,1441.000000 555.166687,1441.000000 1.000000,1441.000000 
	C1.000000,961.000000 1.000000,481.000000 1.000000,1.000000 
	C854.333313,1.000000 1707.666626,1.000000 2561.000000,1.000000 
	C2561.000000,481.000000 2561.000000,961.000000 2561.000000,1441.000000 
	C2262.166748,1441.000000 1963.333374,1441.000000 1664.000000,1441.000000 
M1600.917236,634.060608 
	C1606.350220,634.060608 1611.783203,634.060608 1617.085938,634.060608 
	C1617.085938,628.597168 1617.085938,623.835327 1617.085938,618.994263 
	C1598.942139,618.994263 1581.103516,618.994263 1563.232056,618.994263 
	C1563.232056,624.442932 1563.232056,629.529968 1563.232056,635.143677 
	C1569.348999,635.143677 1575.248779,635.143677 1581.601685,635.143677 
	C1581.601685,655.717407 1581.601685,675.761414 1581.601685,695.676025 
	C1587.670654,695.676025 1593.247803,695.676025 1599.197388,695.676025 
	C1599.197388,675.229126 1599.197388,655.110168 1599.536377,634.814148 
	C1599.748779,634.658508 1599.900024,634.456909 1600.917236,634.060608 
M1724.331299,634.864990 
	C1724.622925,634.717102 1724.841675,634.496826 1725.916748,634.062622 
	C1734.031372,634.062622 1742.146118,634.062622 1750.343750,634.062622 
	C1750.343750,628.684692 1750.343750,623.824280 1750.343750,618.948669 
	C1735.383545,618.948669 1720.824585,618.948669 1706.287720,618.948669 
	C1706.287720,644.794373 1706.287720,670.320312 1706.287720,695.828552 
	C1712.118286,695.828552 1717.576782,695.828552 1723.531372,695.828552 
	C1723.531372,685.586853 1723.531372,675.512146 1723.531372,664.935608 
	C1732.088623,664.935608 1740.157593,664.935608 1748.669312,664.935608 
	C1748.669312,660.807007 1748.479858,657.163391 1748.724487,653.549194 
	C1748.952026,650.188171 1747.617310,649.226013 1744.400513,649.318726 
	C1737.630371,649.513916 1730.850830,649.378113 1723.879395,649.378113 
	C1723.879395,644.212097 1723.879395,639.607300 1724.331299,634.864990 
M700.500122,773.458130 
	C679.689636,773.637878 658.876709,773.685303 638.070312,774.080200 
	C632.032959,774.194702 627.242554,779.544922 627.195801,785.710693 
	C627.052979,804.539429 626.982849,823.370728 627.145508,842.198792 
	C627.216980,850.469055 632.136536,855.051880 640.380249,855.053223 
	C767.532532,855.073975 894.684875,855.071899 1021.837158,855.051758 
	C1028.955811,855.050659 1034.893921,849.473694 1034.952026,842.347168 
	C1035.103149,823.850464 1035.112549,805.350830 1034.943848,786.854431 
	C1034.884277,780.321411 1029.378784,774.471680 1023.402466,774.031128 
	C1018.933655,773.701721 1014.445190,773.482361 1009.965393,773.481079 
	C907.143616,773.451294 804.321899,773.458191 700.500122,773.458130 
M708.500000,679.998657 
	C707.333679,679.998657 706.167297,679.998657 705.000977,679.998657 
	C684.007568,679.999084 663.012939,680.134155 642.021484,679.930481 
	C634.144165,679.854126 626.866760,684.401245 626.983093,694.232910 
	C627.192017,711.891357 627.181091,729.555969 626.974548,747.214661 
	C626.848328,758.013000 634.076416,762.060547 641.958801,762.055603 
	C767.919128,761.976868 893.879578,762.008789 1019.839966,761.983154 
	C1029.100098,761.981262 1034.982666,756.001160 1034.994873,746.810547 
	C1035.016846,730.315735 1034.536621,713.803101 1035.167236,697.332397 
	C1035.575439,686.668945 1028.623413,679.851746 1017.402954,679.874756 
	C914.768982,680.085449 812.134399,679.998657 708.500000,679.998657 
M970.499878,668.535034 
	C986.663330,668.534180 1002.827515,668.625427 1018.989990,668.500061 
	C1029.763672,668.416504 1034.999146,662.943848 1035.000610,652.214111 
	C1035.002930,636.050598 1035.001709,619.887085 1035.001343,603.723572 
	C1035.000977,591.695496 1030.261841,586.926514 1018.277222,586.926331 
	C893.468262,586.924011 768.659302,586.924866 643.850342,586.926270 
	C642.184082,586.926270 640.516418,586.906006 638.851746,586.963257 
	C632.595459,587.178345 627.273865,592.166748 627.231995,598.428894 
	C627.102661,617.754089 627.104553,637.081360 627.240662,656.406433 
	C627.282654,662.367249 631.839172,667.264099 637.597046,668.004822 
	C640.559387,668.386047 643.572571,668.513855 646.562927,668.514587 
	C754.208557,668.539062 861.854248,668.534912 970.499878,668.535034 
M1595.284180,796.008057 
	C1599.644775,796.931580 1602.056274,795.214539 1602.995850,790.813538 
	C1603.537354,788.277222 1604.509399,785.749573 1605.764160,783.481812 
	C1606.455566,782.232544 1608.107422,780.747681 1609.369629,780.706665 
	C1617.190918,780.452576 1625.027344,780.478333 1632.851685,780.681641 
	C1634.078003,780.713562 1635.835205,781.847229 1636.374878,782.948059 
	C1638.432129,787.143433 1640.091431,791.533875 1641.866333,795.772827 
	C1648.154175,795.772827 1654.213013,795.772827 1660.745117,795.772827 
	C1650.304321,769.912781 1640.012329,744.421387 1629.804688,719.139038 
	C1623.931519,719.139038 1618.627808,719.139038 1613.157471,719.139038 
	C1603.036377,744.149109 1592.941895,769.093323 1582.847412,794.037537 
	C1582.418823,793.924011 1581.990234,793.810425 1581.561646,793.696899 
	C1581.561646,789.443420 1581.561646,785.190002 1581.561646,780.458984 
	C1572.501099,780.458984 1563.895752,780.458984 1554.857422,780.458984 
	C1554.857422,759.729858 1554.857422,739.489075 1554.857422,719.284302 
	C1548.825562,719.284302 1543.248901,719.284302 1537.601074,719.284302 
	C1537.601074,744.966370 1537.601074,770.354736 1537.601074,796.008057 
	C1556.731079,796.008057 1575.532959,796.008057 1595.284180,796.008057 
M1271.997559,654.500000 
	C1271.997559,735.646545 1271.997192,816.793091 1271.999268,897.939636 
	C1271.999268,899.605591 1271.680054,901.375244 1272.140137,902.907288 
	C1272.564209,904.320007 1273.832642,906.521240 1274.739014,906.526001 
	C1276.515381,906.535400 1278.781372,905.685669 1279.933472,904.384460 
	C1280.939209,903.248474 1280.961670,901.004517 1280.962280,899.249817 
	C1281.004639,780.445923 1281.001953,661.641968 1280.986938,542.838074 
	C1280.986694,541.352295 1281.345093,539.282166 1280.545166,538.505981 
	C1279.016357,537.022339 1276.789185,535.560791 1274.818726,535.514954 
	C1273.788086,535.491028 1272.049072,538.388794 1271.765747,540.149780 
	C1271.329712,542.859253 1271.979004,545.725952 1271.981079,548.526001 
	C1272.006104,583.517334 1271.997559,618.508667 1271.997559,654.500000 
M1681.496094,718.635681 
	C1675.743164,718.635681 1669.990112,718.635681 1664.301270,718.635681 
	C1664.301270,744.816406 1664.301270,770.339661 1664.301270,795.965332 
	C1674.998413,795.965332 1685.338379,796.367188 1695.621826,795.781494 
	C1700.184082,795.521667 1705.039062,793.993713 1709.043457,791.756714 
	C1716.166748,787.777405 1718.998291,780.856873 1718.490479,772.845520 
	C1717.937012,764.111572 1713.839722,757.890930 1704.878174,755.640930 
	C1704.241943,755.481262 1703.700562,754.943970 1702.894165,754.445862 
	C1711.521362,748.760925 1712.820801,740.787231 1710.883545,732.002441 
	C1709.270508,724.688293 1703.714233,721.088074 1696.846313,719.787903 
	C1692.157104,718.900269 1687.283691,718.985352 1681.496094,718.635681 
M1735.917480,774.219116 
	C1733.451538,771.960144 1731.356567,772.373657 1729.657227,775.143921 
	C1727.954102,777.920349 1726.231323,780.689087 1724.653687,783.536743 
	C1723.163574,786.226135 1723.183594,788.050537 1726.401123,790.174194 
	C1738.112793,797.903931 1750.523804,799.762512 1763.809814,795.787170 
	C1775.706543,792.227478 1781.343872,784.240662 1780.993774,771.896851 
	C1780.745850,763.159119 1774.875244,758.198059 1768.226196,754.205444 
	C1762.323486,750.661194 1755.852661,748.065369 1749.932617,744.546448 
	C1748.385498,743.626831 1747.135620,740.775513 1747.255737,738.908325 
	C1747.363770,737.231140 1749.467651,734.398499 1750.818237,734.322144 
	C1755.135376,734.077881 1759.854736,733.972961 1763.792236,735.466370 
	C1771.583252,738.421326 1771.407715,738.877625 1775.108521,731.520142 
	C1776.268555,729.213867 1777.443115,726.914795 1778.748901,724.340820 
	C1768.715820,718.294617 1758.229858,715.597351 1746.864380,718.143799 
	C1737.126221,720.325623 1729.273926,729.620422 1729.163696,739.558960 
	C1729.118408,743.645020 1729.930420,748.484497 1732.193726,751.675232 
	C1735.464478,756.286255 1740.277832,759.819763 1745.853638,761.990356 
	C1749.343750,763.348938 1752.866089,764.905518 1755.918091,767.028564 
	C1758.891602,769.096985 1762.733398,772.181763 1760.765503,775.947144 
	C1759.452393,778.459595 1755.205566,780.372986 1752.041992,780.783020 
	C1746.089111,781.554382 1740.723145,779.107666 1735.917480,774.219116 
M1673.755737,634.036316 
	C1681.531128,634.036316 1689.306396,634.036316 1697.050293,634.036316 
	C1697.050293,628.653992 1697.050293,623.890991 1697.050293,618.937622 
	C1682.233398,618.937622 1667.686523,618.937622 1652.921387,618.937622 
	C1652.921387,644.647217 1652.921387,670.060669 1652.921387,695.738037 
	C1658.621216,695.738037 1664.189331,695.738037 1670.253418,695.738037 
	C1670.253418,685.478455 1670.253418,675.411682 1670.253418,664.792664 
	C1678.788208,664.792664 1686.844116,664.792664 1694.773560,664.792664 
	C1694.773560,659.437683 1694.773560,654.653809 1694.773560,649.201294 
	C1686.527466,649.201294 1678.492554,649.201294 1670.190308,649.201294 
	C1670.190308,644.552185 1670.031738,640.564209 1670.309937,636.606995 
	C1670.373901,635.696655 1671.937744,634.891785 1673.755737,634.036316 
M1623.702271,631.504700 
	C1623.702271,652.882385 1623.702271,674.260132 1623.702271,695.692871 
	C1629.832886,695.692871 1635.389648,695.692871 1640.821655,695.692871 
	C1640.821655,669.873047 1640.821655,644.363281 1640.821655,618.909790 
	C1635.031616,618.909790 1629.608521,618.909790 1623.702148,618.909790 
	C1623.702148,622.943726 1623.702148,626.725708 1623.702271,631.504700 
z"/>
<path fill="#FF1818" opacity="1.000000" stroke="none" 
	d="
M701.000122,773.458191 
	C804.321899,773.458191 907.143616,773.451294 1009.965393,773.481079 
	C1014.445190,773.482361 1018.933655,773.701721 1023.402466,774.031128 
	C1029.378784,774.471680 1034.884277,780.321411 1034.943848,786.854431 
	C1035.112549,805.350830 1035.103149,823.850464 1034.952026,842.347168 
	C1034.893921,849.473694 1028.955811,855.050659 1021.837158,855.051758 
	C894.684875,855.071899 767.532532,855.073975 640.380249,855.053223 
	C632.136536,855.051880 627.216980,850.469055 627.145508,842.198792 
	C626.982849,823.370728 627.052979,804.539429 627.195801,785.710693 
	C627.242554,779.544922 632.032959,774.194702 638.070312,774.080200 
	C658.876709,773.685303 679.689636,773.637878 701.000122,773.458191 
M658.294189,830.084656 
	C659.022156,830.992004 659.682373,831.965210 660.488770,832.796509 
	C668.152588,840.697144 677.309814,844.024536 688.094238,840.959839 
	C698.923523,837.882263 705.976135,830.711975 707.922546,819.532776 
	C709.923157,808.041809 705.984558,798.525330 696.315491,791.784729 
	C685.869202,784.502502 671.733154,785.667236 662.254700,794.336426 
	C652.517822,803.241943 650.873047,816.593323 658.294189,830.084656 
M780.578186,825.242065 
	C807.522705,825.242065 834.467224,825.242065 861.600525,825.242065 
	C861.600525,818.200684 861.600525,811.332520 861.600525,804.555786 
	C834.214417,804.555786 807.184814,804.555786 780.040710,804.555786 
	C780.040710,811.430603 780.040710,817.918762 780.578186,825.242065 
M937.014587,812.500183 
	C937.014526,806.672241 936.949219,800.843323 937.038452,795.016724 
	C937.093140,791.444092 935.833130,789.249084 931.952942,789.147278 
	C927.888489,789.040649 926.269653,791.182312 926.275513,795.017395 
	C926.295410,808.005371 926.290161,820.993286 926.278870,833.981262 
	C926.275513,837.797791 927.883118,839.969360 931.959534,839.852966 
	C935.833496,839.742371 937.088806,837.560608 937.040894,833.980713 
	C936.949585,827.154907 937.014526,820.327087 937.014587,812.500183 
M952.409302,839.840271 
	C955.999939,839.572327 957.084473,837.401550 957.068787,834.089966 
	C957.006531,820.971863 957.011597,807.853210 957.061584,794.734985 
	C957.075623,791.050232 955.495667,789.152283 951.726746,789.143860 
	C947.927185,789.135315 946.330017,791.181152 946.327271,794.758606 
	C946.317139,807.877014 946.318848,820.995361 946.324890,834.113770 
	C946.326477,837.626831 947.745361,839.864319 952.409302,839.840271 
M977.059143,794.006653 
	C976.952454,790.003601 974.447998,788.950562 971.006592,789.175659 
	C967.343689,789.415222 966.362427,791.846436 966.364136,795.042847 
	C966.370911,807.873352 966.384155,820.703979 966.354980,833.534424 
	C966.346802,837.144043 967.317993,839.792297 971.583801,839.856812 
	C976.069275,839.924622 977.139404,837.363525 977.105530,833.406677 
	C976.995667,820.577148 977.064087,807.745972 977.059143,794.006653 
z"/>
<path fill="#FF1717" opacity="1.000000" stroke="none" 
	d="
M709.000000,679.998657 
	C812.134399,679.998657 914.768982,680.085449 1017.402954,679.874756 
	C1028.623413,679.851746 1035.575439,686.668945 1035.167236,697.332397 
	C1034.536621,713.803101 1035.016846,730.315735 1034.994873,746.810547 
	C1034.982666,756.001160 1029.100098,761.981262 1019.839966,761.983154 
	C893.879578,762.008789 767.919128,761.976868 641.958801,762.055603 
	C634.076416,762.060547 626.848328,758.013000 626.974548,747.214661 
	C627.181091,729.555969 627.192017,711.891357 626.983093,694.232910 
	C626.866760,684.401245 634.144165,679.854126 642.021484,679.930481 
	C663.012939,680.134155 684.007568,679.999084 705.000977,679.998657 
	C706.167297,679.998657 707.333679,679.998657 709.000000,679.998657 
M683.024353,748.234741 
	C695.070984,747.241394 704.993896,739.004517 707.743347,727.715637 
	C710.478699,716.485107 705.795532,704.542664 696.124146,698.085571 
	C686.465271,691.636658 673.356934,692.176025 663.983154,699.408081 
	C654.851685,706.453186 651.245911,718.712463 654.981506,729.871460 
	C658.196960,739.476929 668.006470,749.040710 683.024353,748.234741 
M797.501221,731.998657 
	C818.908752,731.998657 840.316284,731.998657 861.638184,731.998657 
	C861.638184,724.583862 861.638184,717.839600 861.638184,711.190063 
	C834.278625,711.190063 807.236389,711.190063 780.270264,711.190063 
	C780.270264,718.278381 780.270264,725.014709 780.270264,731.998657 
	C785.886963,731.998657 791.194397,731.998657 797.501221,731.998657 
M977.069275,729.493408 
	C977.068359,720.004944 977.048828,710.516418 977.076294,701.028015 
	C977.086304,697.577209 975.585449,695.853821 971.997192,695.760559 
	C968.553345,695.671021 966.430420,696.959290 966.412720,700.518005 
	C966.344849,714.167480 966.343750,727.817688 966.415283,741.467102 
	C966.433838,745.008362 968.534546,746.336243 971.990845,746.239502 
	C975.565979,746.139404 977.113403,744.438293 977.075684,740.976746 
	C977.037537,737.481445 977.068542,733.985352 977.069275,729.493408 
M957.048767,717.500549 
	C957.048462,712.173035 956.990234,706.844666 957.068176,701.518311 
	C957.120239,697.959106 955.916443,695.872925 951.959656,695.754150 
	C947.786316,695.628906 946.299011,697.695068 946.306030,701.522339 
	C946.329773,714.508118 946.326660,727.493958 946.308167,740.479736 
	C946.302734,744.298218 947.789856,746.378052 951.967957,746.245667 
	C955.921997,746.120361 957.106018,744.035095 957.070190,740.475952 
	C956.996399,733.151428 957.048462,725.825562 957.048767,717.500549 
M926.275146,713.506958 
	C926.277649,722.665649 926.258972,731.824402 926.293091,740.982971 
	C926.306885,744.681763 928.143005,746.365234 931.938171,746.241089 
	C935.509644,746.124084 937.034424,744.442139 937.027588,740.978027 
	C937.001099,727.656311 937.003418,714.334534 937.026001,701.012756 
	C937.031799,697.552307 935.505310,695.861389 931.926697,695.758911 
	C928.145081,695.650696 926.312439,697.300598 926.287048,701.021057 
	C926.260925,704.850891 926.277161,708.680969 926.275146,713.506958 
z"/>
<path fill="#FF1717" opacity="1.000000" stroke="none" 
	d="
M969.999878,668.534912 
	C861.854248,668.534912 754.208557,668.539062 646.562927,668.514587 
	C643.572571,668.513855 640.559387,668.386047 637.597046,668.004822 
	C631.839172,667.264099 627.282654,662.367249 627.240662,656.406433 
	C627.104553,637.081360 627.102661,617.754089 627.231995,598.428894 
	C627.273865,592.166748 632.595459,587.178345 638.851746,586.963257 
	C640.516418,586.906006 642.184082,586.926270 643.850342,586.926270 
	C768.659302,586.924866 893.468262,586.924011 1018.277222,586.926331 
	C1030.261841,586.926514 1035.000977,591.695496 1035.001343,603.723572 
	C1035.001709,619.887085 1035.002930,636.050598 1035.000610,652.214111 
	C1034.999146,662.943848 1029.763672,668.416504 1018.989990,668.500061 
	C1002.827515,668.625427 986.663330,668.534180 969.999878,668.534912 
M706.169128,638.481140 
	C710.884583,626.378906 707.717957,613.472046 698.212891,606.052124 
	C688.284485,598.301758 675.050110,597.996643 664.826599,605.282410 
	C655.104004,612.211182 650.965759,624.901611 655.020020,636.318970 
	C658.882996,647.197815 666.771667,653.660217 678.215637,654.725769 
	C690.732971,655.891357 700.027161,650.360291 706.169128,638.481140 
M861.958557,620.750244 
	C862.686890,616.660400 859.886353,617.152466 857.364624,617.154114 
	C832.923584,617.170105 808.482483,617.159180 784.041443,617.177185 
	C782.768860,617.178101 781.496460,617.372192 780.186401,617.479492 
	C780.186401,624.560059 780.186401,631.312622 780.186401,638.279419 
	C807.450012,638.279419 834.479797,638.279419 861.958801,638.279419 
	C861.958801,632.589661 861.958801,627.144897 861.958557,620.750244 
M969.228821,652.489075 
	C975.818970,653.214355 977.052002,652.195923 977.062561,645.857971 
	C977.083252,633.400513 977.014587,620.942688 977.101501,608.485840 
	C977.126953,604.839478 976.273071,602.260437 972.021606,602.140015 
	C967.568787,602.013916 966.327271,604.567749 966.342407,608.483948 
	C966.391296,621.107300 966.269897,633.732361 966.455994,646.353149 
	C966.484558,648.288635 967.788879,650.205322 969.228821,652.489075 
M946.312805,623.501221 
	C946.315857,631.496033 946.282898,639.491089 946.338013,647.485535 
	C946.363220,651.142456 948.243347,652.983032 951.988220,652.858826 
	C955.493347,652.742554 957.068481,650.966919 957.059265,647.492188 
	C957.023987,634.167603 957.028381,620.842834 957.055054,607.518188 
	C957.061951,604.067139 955.515991,602.244507 951.989746,602.141174 
	C948.260559,602.031921 946.373718,603.837158 946.334106,607.511963 
	C946.280151,612.508179 946.315674,617.505310 946.312805,623.501221 
M937.017944,632.498779 
	C937.017883,624.337524 936.963074,616.175720 937.043030,608.015259 
	C937.078003,604.442810 935.837769,602.245483 931.956360,602.142395 
	C928.241394,602.043701 926.306030,603.822876 926.296753,607.509521 
	C926.263428,620.833862 926.259277,634.158508 926.300293,647.482849 
	C926.311584,651.146484 928.225708,652.970886 931.956543,652.857056 
	C935.467163,652.749817 937.062378,650.956665 937.027710,647.488281 
	C936.981018,642.825195 937.017273,638.161255 937.017944,632.498779 
z"/>
<path fill="#FF1A1A" opacity="1.000000" stroke="none" 
	d="
M1594.809570,796.008057 
	C1575.532959,796.008057 1556.731079,796.008057 1537.601074,796.008057 
	C1537.601074,770.354736 1537.601074,744.966370 1537.601074,719.284302 
	C1543.248901,719.284302 1548.825562,719.284302 1554.857422,719.284302 
	C1554.857422,739.489075 1554.857422,759.729858 1554.857422,780.458984 
	C1563.895752,780.458984 1572.501099,780.458984 1581.561646,780.458984 
	C1581.561646,785.190002 1581.561646,789.443420 1581.561646,793.696899 
	C1581.990234,793.810425 1582.418823,793.924011 1582.847412,794.037537 
	C1592.941895,769.093323 1603.036377,744.149109 1613.157471,719.139038 
	C1618.627808,719.139038 1623.931519,719.139038 1629.804688,719.139038 
	C1640.012329,744.421387 1650.304321,769.912781 1660.745117,795.772827 
	C1654.213013,795.772827 1648.154175,795.772827 1641.866333,795.772827 
	C1640.091431,791.533875 1638.432129,787.143433 1636.374878,782.948059 
	C1635.835205,781.847229 1634.078003,780.713562 1632.851685,780.681641 
	C1625.027344,780.478333 1617.190918,780.452576 1609.369629,780.706665 
	C1608.107422,780.747681 1606.455566,782.232544 1605.764160,783.481812 
	C1604.509399,785.749573 1603.537354,788.277222 1602.995850,790.813538 
	C1602.056274,795.214539 1599.644775,796.931580 1594.809570,796.008057 
M1625.052368,751.428894 
	C1623.965942,748.679260 1622.879517,745.929626 1621.488770,742.409912 
	C1618.468140,750.305847 1615.730591,757.461853 1612.904907,764.848328 
	C1618.840942,764.848328 1624.256348,764.848328 1630.159424,764.848328 
	C1628.461426,760.417480 1626.879395,756.289612 1625.052368,751.428894 
z"/>
<path fill="#FF1717" opacity="1.000000" stroke="none" 
	d="
M1271.997559,654.000000 
	C1271.997559,618.508667 1272.006104,583.517334 1271.981079,548.526001 
	C1271.979004,545.725952 1271.329712,542.859253 1271.765747,540.149780 
	C1272.049072,538.388794 1273.788086,535.491028 1274.818726,535.514954 
	C1276.789185,535.560791 1279.016357,537.022339 1280.545166,538.505981 
	C1281.345093,539.282166 1280.986694,541.352295 1280.986938,542.838074 
	C1281.001953,661.641968 1281.004639,780.445923 1280.962280,899.249817 
	C1280.961670,901.004517 1280.939209,903.248474 1279.933472,904.384460 
	C1278.781372,905.685669 1276.515381,906.535400 1274.739014,906.526001 
	C1273.832642,906.521240 1272.564209,904.320007 1272.140137,902.907288 
	C1271.680054,901.375244 1271.999268,899.605591 1271.999268,897.939636 
	C1271.997192,816.793091 1271.997559,735.646545 1271.997559,654.000000 
z"/>
<path fill="#FF1818" opacity="1.000000" stroke="none" 
	d="
M1681.994385,718.635620 
	C1687.283691,718.985352 1692.157104,718.900269 1696.846313,719.787903 
	C1703.714233,721.088074 1709.270508,724.688293 1710.883545,732.002441 
	C1712.820801,740.787231 1711.521362,748.760925 1702.894165,754.445862 
	C1703.700562,754.943970 1704.241943,755.481262 1704.878174,755.640930 
	C1713.839722,757.890930 1717.937012,764.111572 1718.490479,772.845520 
	C1718.998291,780.856873 1716.166748,787.777405 1709.043457,791.756714 
	C1705.039062,793.993713 1700.184082,795.521667 1695.621826,795.781494 
	C1685.338379,796.367188 1674.998413,795.965332 1664.301270,795.965332 
	C1664.301270,770.339661 1664.301270,744.816406 1664.301270,718.635681 
	C1669.990112,718.635681 1675.743164,718.635681 1681.994385,718.635620 
M1686.358032,764.055176 
	C1684.901733,764.128967 1683.445312,764.202759 1681.563232,764.298096 
	C1681.563232,769.031189 1681.550049,773.490112 1681.571411,777.948914 
	C1681.577637,779.234619 1681.683350,780.519714 1681.771362,782.401428 
	C1685.704834,782.196228 1689.370117,782.363586 1692.890137,781.727478 
	C1696.962891,780.991577 1699.876709,778.589233 1699.968506,773.971008 
	C1700.063110,769.211731 1697.989380,765.969360 1693.181030,764.904297 
	C1691.245361,764.475525 1689.245972,764.333313 1686.358032,764.055176 
M1681.472656,743.316528 
	C1681.472656,745.087158 1681.472656,746.857788 1681.472656,748.785889 
	C1686.458130,748.974915 1691.162842,749.023193 1693.375610,744.609680 
	C1694.524048,742.318909 1694.591797,738.434875 1693.385254,736.239136 
	C1691.050415,731.989624 1686.332520,732.110413 1681.472900,732.313232 
	C1681.472900,735.816284 1681.472900,739.104614 1681.472656,743.316528 
z"/>
<path fill="#FF1A1A" opacity="1.000000" stroke="none" 
	d="
M1736.120850,774.550171 
	C1740.723145,779.107666 1746.089111,781.554382 1752.041992,780.783020 
	C1755.205566,780.372986 1759.452393,778.459595 1760.765503,775.947144 
	C1762.733398,772.181763 1758.891602,769.096985 1755.918091,767.028564 
	C1752.866089,764.905518 1749.343750,763.348938 1745.853638,761.990356 
	C1740.277832,759.819763 1735.464478,756.286255 1732.193726,751.675232 
	C1729.930420,748.484497 1729.118408,743.645020 1729.163696,739.558960 
	C1729.273926,729.620422 1737.126221,720.325623 1746.864380,718.143799 
	C1758.229858,715.597351 1768.715820,718.294617 1778.748901,724.340820 
	C1777.443115,726.914795 1776.268555,729.213867 1775.108521,731.520142 
	C1771.407715,738.877625 1771.583252,738.421326 1763.792236,735.466370 
	C1759.854736,733.972961 1755.135376,734.077881 1750.818237,734.322144 
	C1749.467651,734.398499 1747.363770,737.231140 1747.255737,738.908325 
	C1747.135620,740.775513 1748.385498,743.626831 1749.932617,744.546448 
	C1755.852661,748.065369 1762.323486,750.661194 1768.226196,754.205444 
	C1774.875244,758.198059 1780.745850,763.159119 1780.993774,771.896851 
	C1781.343872,784.240662 1775.706543,792.227478 1763.809814,795.787170 
	C1750.523804,799.762512 1738.112793,797.903931 1726.401123,790.174194 
	C1723.183594,788.050537 1723.163574,786.226135 1724.653687,783.536743 
	C1726.231323,780.689087 1727.954102,777.920349 1729.657227,775.143921 
	C1731.356567,772.373657 1733.451538,771.960144 1736.120850,774.550171 
z"/>
<path fill="#FF1A1A" opacity="1.000000" stroke="none" 
	d="
M1723.879395,635.002563 
	C1723.879395,639.607300 1723.879395,644.212097 1723.879395,649.378113 
	C1730.850830,649.378113 1737.630371,649.513916 1744.400513,649.318726 
	C1747.617310,649.226013 1748.952026,650.188171 1748.724487,653.549194 
	C1748.479858,657.163391 1748.669312,660.807007 1748.669312,664.935608 
	C1740.157593,664.935608 1732.088623,664.935608 1723.531372,664.935608 
	C1723.531372,675.512146 1723.531372,685.586853 1723.531372,695.828552 
	C1717.576782,695.828552 1712.118286,695.828552 1706.287720,695.828552 
	C1706.287720,670.320312 1706.287720,644.794373 1706.287720,618.948669 
	C1720.824585,618.948669 1735.383545,618.948669 1750.343750,618.948669 
	C1750.343750,623.824280 1750.343750,628.684692 1750.343750,634.062622 
	C1742.146118,634.062622 1734.031372,634.062622 1725.158447,634.090332 
	C1724.226562,634.412903 1724.052979,634.707703 1723.879395,635.002563 
z"/>
<path fill="#FF1717" opacity="1.000000" stroke="none" 
	d="
M1673.283569,634.037354 
	C1671.937744,634.891785 1670.373901,635.696655 1670.309937,636.606995 
	C1670.031738,640.564209 1670.190308,644.552185 1670.190308,649.201294 
	C1678.492554,649.201294 1686.527466,649.201294 1694.773560,649.201294 
	C1694.773560,654.653809 1694.773560,659.437683 1694.773560,664.792664 
	C1686.844116,664.792664 1678.788208,664.792664 1670.253418,664.792664 
	C1670.253418,675.411682 1670.253418,685.478455 1670.253418,695.738037 
	C1664.189331,695.738037 1658.621216,695.738037 1652.921387,695.738037 
	C1652.921387,670.060669 1652.921387,644.647217 1652.921387,618.937622 
	C1667.686523,618.937622 1682.233398,618.937622 1697.050293,618.937622 
	C1697.050293,623.890991 1697.050293,628.653992 1697.050293,634.036316 
	C1689.306396,634.036316 1681.531128,634.036316 1673.283569,634.037354 
z"/>
<path fill="#FF1818" opacity="1.000000" stroke="none" 
	d="
M1599.197388,634.991272 
	C1599.197388,655.110168 1599.197388,675.229126 1599.197388,695.676025 
	C1593.247803,695.676025 1587.670654,695.676025 1581.601685,695.676025 
	C1581.601685,675.761414 1581.601685,655.717407 1581.601685,635.143677 
	C1575.248779,635.143677 1569.348999,635.143677 1563.232056,635.143677 
	C1563.232056,629.529968 1563.232056,624.442932 1563.232056,618.994263 
	C1581.103516,618.994263 1598.942139,618.994263 1617.085938,618.994263 
	C1617.085938,623.835327 1617.085938,628.597168 1617.085938,634.060608 
	C1611.783203,634.060608 1606.350220,634.060608 1600.200439,634.090454 
	C1599.388184,634.410645 1599.292847,634.700928 1599.197388,634.991272 
z"/>
<path fill="#FF1717" opacity="1.000000" stroke="none" 
	d="
M1623.702148,631.006165 
	C1623.702148,626.725708 1623.702148,622.943726 1623.702148,618.909790 
	C1629.608521,618.909790 1635.031616,618.909790 1640.821655,618.909790 
	C1640.821655,644.363281 1640.821655,669.873047 1640.821655,695.692871 
	C1635.389648,695.692871 1629.832886,695.692871 1623.702271,695.692871 
	C1623.702271,674.260132 1623.702271,652.882385 1623.702148,631.006165 
z"/>
<path fill="#FFF6F6" opacity="0" stroke="none" 
	d="
M1724.105347,634.933777 
	C1724.052979,634.707703 1724.226562,634.412903 1724.693848,634.161133 
	C1724.841675,634.496826 1724.622925,634.717102 1724.105347,634.933777 
z"/>
<path fill="#FFF6F6" opacity="0" stroke="none" 
	d="
M1599.366943,634.902710 
	C1599.292847,634.700928 1599.388184,634.410645 1599.736816,634.164795 
	C1599.900024,634.456909 1599.748779,634.658508 1599.366943,634.902710 
z"/>
<path fill="#FFFDFD" opacity="0" stroke="none" 
	d="
M658.112183,829.762451 
	C650.873047,816.593323 652.517822,803.241943 662.254700,794.336426 
	C671.733154,785.667236 685.869202,784.502502 696.315491,791.784729 
	C705.984558,798.525330 709.923157,808.041809 707.922546,819.532776 
	C705.976135,830.711975 698.923523,837.882263 688.094238,840.959839 
	C677.309814,844.024536 668.152588,840.697144 660.488770,832.796509 
	C659.682373,831.965210 659.022156,830.992004 658.112183,829.762451 
z"/>
<path fill="#FFFDFD" opacity="0" stroke="none" 
	d="
M780.309448,824.824463 
	C780.040710,817.918762 780.040710,811.430603 780.040710,804.555786 
	C807.184814,804.555786 834.214417,804.555786 861.600525,804.555786 
	C861.600525,811.332520 861.600525,818.200684 861.600525,825.242065 
	C834.467224,825.242065 807.522705,825.242065 780.309448,824.824463 
z"/>
<path fill="#FFF6F6" opacity="0" stroke="none" 
	d="
M937.014587,813.000122 
	C937.014526,820.327087 936.949585,827.154907 937.040894,833.980713 
	C937.088806,837.560608 935.833496,839.742371 931.959534,839.852966 
	C927.883118,839.969360 926.275513,837.797791 926.278870,833.981262 
	C926.290161,820.993286 926.295410,808.005371 926.275513,795.017395 
	C926.269653,791.182312 927.888489,789.040649 931.952942,789.147278 
	C935.833130,789.249084 937.093140,791.444092 937.038452,795.016724 
	C936.949219,800.843323 937.014526,806.672241 937.014587,813.000122 
z"/>
<path fill="#FFF6F6" opacity="0" stroke="none" 
	d="
M952.004456,839.843384 
	C947.745361,839.864319 946.326477,837.626831 946.324890,834.113770 
	C946.318848,820.995361 946.317139,807.877014 946.327271,794.758606 
	C946.330017,791.181152 947.927185,789.135315 951.726746,789.143860 
	C955.495667,789.152283 957.075623,791.050232 957.061584,794.734985 
	C957.011597,807.853210 957.006531,820.971863 957.068787,834.089966 
	C957.084473,837.401550 955.999939,839.572327 952.004456,839.843384 
z"/>
<path fill="#FFF6F6" opacity="0" stroke="none" 
	d="
M977.061523,794.461060 
	C977.064087,807.745972 976.995667,820.577148 977.105530,833.406677 
	C977.139404,837.363525 976.069275,839.924622 971.583801,839.856812 
	C967.317993,839.792297 966.346802,837.144043 966.354980,833.534424 
	C966.384155,820.703979 966.370911,807.873352 966.364136,795.042847 
	C966.362427,791.846436 967.343689,789.415222 971.006592,789.175659 
	C974.447998,788.950562 976.952454,790.003601 977.061523,794.461060 
z"/>
<path fill="#FFFDFD" opacity="0" stroke="none" 
	d="
M682.619324,748.281250 
	C668.006470,749.040710 658.196960,739.476929 654.981506,729.871460 
	C651.245911,718.712463 654.851685,706.453186 663.983154,699.408081 
	C673.356934,692.176025 686.465271,691.636658 696.124146,698.085571 
	C705.795532,704.542664 710.478699,716.485107 707.743347,727.715637 
	C704.993896,739.004517 695.070984,747.241394 682.619324,748.281250 
z"/>
<path fill="#FFFFFF" opacity="0" stroke="none" 
	d="
M797.001526,731.998657 
	C791.194397,731.998657 785.886963,731.998657 780.270264,731.998657 
	C780.270264,725.014709 780.270264,718.278381 780.270264,711.190063 
	C807.236389,711.190063 834.278625,711.190063 861.638184,711.190063 
	C861.638184,717.839600 861.638184,724.583862 861.638184,731.998657 
	C840.316284,731.998657 818.908752,731.998657 797.001526,731.998657 
z"/>
<path fill="#FFF6F6" opacity="0" stroke="none" 
	d="
M977.069275,729.991516 
	C977.068542,733.985352 977.037537,737.481445 977.075684,740.976746 
	C977.113403,744.438293 975.565979,746.139404 971.990845,746.239502 
	C968.534546,746.336243 966.433838,745.008362 966.415283,741.467102 
	C966.343750,727.817688 966.344849,714.167480 966.412720,700.518005 
	C966.430420,696.959290 968.553345,695.671021 971.997192,695.760559 
	C975.585449,695.853821 977.086304,697.577209 977.076294,701.028015 
	C977.048828,710.516418 977.068359,720.004944 977.069275,729.991516 
z"/>
<path fill="#FFF6F6" opacity="0" stroke="none" 
	d="
M957.048767,718.000366 
	C957.048462,725.825562 956.996399,733.151428 957.070190,740.475952 
	C957.106018,744.035095 955.921997,746.120361 951.967957,746.245667 
	C947.789856,746.378052 946.302734,744.298218 946.308167,740.479736 
	C946.326660,727.493958 946.329773,714.508118 946.306030,701.522339 
	C946.299011,697.695068 947.786316,695.628906 951.959656,695.754150 
	C955.916443,695.872925 957.120239,697.959106 957.068176,701.518311 
	C956.990234,706.844666 957.048462,712.173035 957.048767,718.000366 
z"/>
<path fill="#FFF6F6" opacity="0" stroke="none" 
	d="
M926.275024,713.008972 
	C926.277161,708.680969 926.260925,704.850891 926.287048,701.021057 
	C926.312439,697.300598 928.145081,695.650696 931.926697,695.758911 
	C935.505310,695.861389 937.031799,697.552307 937.026001,701.012756 
	C937.003418,714.334534 937.001099,727.656311 937.027588,740.978027 
	C937.034424,744.442139 935.509644,746.124084 931.938171,746.241089 
	C928.143005,746.365234 926.306885,744.681763 926.293091,740.982971 
	C926.258972,731.824402 926.277649,722.665649 926.275024,713.008972 
z"/>
<path fill="#FFFDFD" opacity="0" stroke="none" 
	d="
M706.031860,638.837769 
	C700.027161,650.360291 690.732971,655.891357 678.215637,654.725769 
	C666.771667,653.660217 658.882996,647.197815 655.020020,636.318970 
	C650.965759,624.901611 655.104004,612.211182 664.826599,605.282410 
	C675.050110,597.996643 688.284485,598.301758 698.212891,606.052124 
	C707.717957,613.472046 710.884583,626.378906 706.031860,638.837769 
z"/>
<path fill="#FFFDFD" opacity="0" stroke="none" 
	d="
M861.958679,621.225159 
	C861.958801,627.144897 861.958801,632.589661 861.958801,638.279419 
	C834.479797,638.279419 807.450012,638.279419 780.186401,638.279419 
	C780.186401,631.312622 780.186401,624.560059 780.186401,617.479492 
	C781.496460,617.372192 782.768860,617.178101 784.041443,617.177185 
	C808.482483,617.159180 832.923584,617.170105 857.364624,617.154114 
	C859.886353,617.152466 862.686890,616.660400 861.958679,621.225159 
z"/>
<path fill="#FFF6F6" opacity="0" stroke="none" 
	d="
M968.865967,652.309875 
	C967.788879,650.205322 966.484558,648.288635 966.455994,646.353149 
	C966.269897,633.732361 966.391296,621.107300 966.342407,608.483948 
	C966.327271,604.567749 967.568787,602.013916 972.021606,602.140015 
	C976.273071,602.260437 977.126953,604.839478 977.101501,608.485840 
	C977.014587,620.942688 977.083252,633.400513 977.062561,645.857971 
	C977.052002,652.195923 975.818970,653.214355 968.865967,652.309875 
z"/>
<path fill="#FFF6F6" opacity="0" stroke="none" 
	d="
M946.312805,623.001648 
	C946.315674,617.505310 946.280151,612.508179 946.334106,607.511963 
	C946.373718,603.837158 948.260559,602.031921 951.989746,602.141174 
	C955.515991,602.244507 957.061951,604.067139 957.055054,607.518188 
	C957.028381,620.842834 957.023987,634.167603 957.059265,647.492188 
	C957.068481,650.966919 955.493347,652.742554 951.988220,652.858826 
	C948.243347,652.983032 946.363220,651.142456 946.338013,647.485535 
	C946.282898,639.491089 946.315857,631.496033 946.312805,623.001648 
z"/>
<path fill="#FFF6F6" opacity="0" stroke="none" 
	d="
M937.017944,632.998230 
	C937.017273,638.161255 936.981018,642.825195 937.027710,647.488281 
	C937.062378,650.956665 935.467163,652.749817 931.956543,652.857056 
	C928.225708,652.970886 926.311584,651.146484 926.300293,647.482849 
	C926.259277,634.158508 926.263428,620.833862 926.296753,607.509521 
	C926.306030,603.822876 928.241394,602.043701 931.956360,602.142395 
	C935.837769,602.245483 937.078003,604.442810 937.043030,608.015259 
	C936.963074,616.175720 937.017883,624.337524 937.017944,632.998230 
z"/>
<path fill="#FFF6F6" opacity="0" stroke="none" 
	d="
M1625.174927,751.795288 
	C1626.879395,756.289612 1628.461426,760.417480 1630.159424,764.848328 
	C1624.256348,764.848328 1618.840942,764.848328 1612.904907,764.848328 
	C1615.730591,757.461853 1618.468140,750.305847 1621.488770,742.409912 
	C1622.879517,745.929626 1623.965942,748.679260 1625.174927,751.795288 
z"/>
<path fill="#FFFDFD" opacity="0" stroke="none" 
	d="
M1686.816895,764.057922 
	C1689.245972,764.333313 1691.245361,764.475525 1693.181030,764.904297 
	C1697.989380,765.969360 1700.063110,769.211731 1699.968506,773.971008 
	C1699.876709,778.589233 1696.962891,780.991577 1692.890137,781.727478 
	C1689.370117,782.363586 1685.704834,782.196228 1681.771362,782.401428 
	C1681.683350,780.519714 1681.577637,779.234619 1681.571411,777.948914 
	C1681.550049,773.490112 1681.563232,769.031189 1681.563232,764.298096 
	C1683.445312,764.202759 1684.901733,764.128967 1686.816895,764.057922 
z"/>
<path fill="#FFF6F6" opacity="0" stroke="none" 
	d="
M1681.472778,742.854736 
	C1681.472900,739.104614 1681.472900,735.816284 1681.472900,732.313232 
	C1686.332520,732.110413 1691.050415,731.989624 1693.385254,736.239136 
	C1694.591797,738.434875 1694.524048,742.318909 1693.375610,744.609680 
	C1691.162842,749.023193 1686.458130,748.974915 1681.472656,748.785889 
	C1681.472656,746.857788 1681.472656,745.087158 1681.472778,742.854736 
z"/>
</svg>