<svg version="1.1" id="Layer_1" xmlns="http://www.w3.org/2000/svg" xmlns:xlink="http://www.w3.org/1999/xlink" x="0px" y="0px"
	 width="100%" viewBox="0 0 2560 1440" enable-background="new 0 0 2560 1440" xml:space="preserve">
<path fill="#FF1616" opacity="1.000000" stroke="none" 
	d="
M1664.000000,1441.000000 
	C1109.333374,1441.000000 555.166687,1441.000000 1.000000,1441.000000 
	C1.000000,961.000000 1.000000,481.000000 1.000000,1.000000 
	C854.333313,1.000000 1707.666626,1.000000 2561.000000,1.000000 
	C2561.000000,481.000000 2561.000000,961.000000 2561.000000,1441.000000 
	C2262.166748,1441.000000 1963.333374,1441.000000 1664.000000,1441.000000 
M692.500427,773.483521 
	C675.836487,773.485229 659.171936,773.398865 642.508911,773.524292 
	C633.661316,773.590820 627.315796,778.747498 627.188110,786.611755 
	C626.887939,805.103088 626.893066,823.605469 627.173462,842.097351 
	C627.294189,850.053223 632.902649,855.056946 640.677368,855.057983 
	C767.656433,855.075317 894.635620,855.013000 1021.614319,855.221741 
	C1028.428223,855.232910 1035.149536,847.944397 1035.080444,841.926514 
	C1034.869995,823.598572 1035.074097,805.266357 1034.965454,786.936707 
	C1034.927246,780.502441 1030.251099,775.110901 1023.909729,773.968262 
	C1021.310913,773.499939 1018.604675,773.502075 1015.947327,773.501526 
	C908.465027,773.480408 800.982788,773.483521 692.500427,773.483521 
M1029.785522,665.357178 
	C1033.705322,662.172241 1035.102417,658.048401 1035.059448,653.032166 
	C1034.915405,636.207214 1035.008789,619.380127 1035.003418,602.553894 
	C1035.000122,591.925354 1030.074219,586.929138 1019.533142,586.928589 
	C893.752625,586.922485 767.972168,586.922546 642.191650,586.929382 
	C632.451660,586.929932 627.089233,592.180664 627.046509,601.953186 
	C626.972290,618.945740 626.965942,635.939148 627.048340,652.931580 
	C627.097351,663.046204 632.302124,668.265747 642.466736,668.485840 
	C648.794495,668.622925 655.127502,668.516296 661.458191,668.516296 
	C779.741821,668.516602 898.025574,668.544861 1016.309021,668.403076 
	C1020.610840,668.397949 1024.910767,666.722107 1029.785522,665.357178 
M719.500000,679.998657 
	C694.001465,679.998718 668.502930,679.978149 643.004395,680.008667 
	C632.536377,680.021179 627.067261,685.531006 627.039490,696.090820 
	C626.996582,712.423157 627.010803,728.755676 627.033752,745.088074 
	C627.050659,757.091736 632.014954,761.996643 644.121826,761.998474 
	C690.952515,762.005554 737.783264,762.001343 784.613953,762.001343 
	C862.442932,762.001282 940.271851,762.004517 1018.100830,761.997986 
	C1030.027100,761.997009 1035.000610,756.963257 1035.001099,744.963135 
	C1035.001831,729.130676 1034.495605,713.276917 1035.161499,697.472534 
	C1035.691772,684.885925 1027.223633,679.827820 1017.482971,679.851562 
	C918.489136,680.092407 819.494446,679.998657 719.500000,679.998657 
M1537.285522,721.973999 
	C1537.285522,746.569397 1537.285522,771.164795 1537.285522,796.008057 
	C1554.433594,796.008057 1570.907715,796.029297 1587.381958,795.994019 
	C1591.856201,795.984436 1597.301758,797.319397 1600.519043,795.256836 
	C1603.473999,793.362549 1603.817749,787.617249 1605.750244,783.789795 
	C1606.460327,782.383545 1608.392334,780.747986 1609.823730,780.692810 
	C1617.642822,780.391663 1625.485840,780.390442 1633.304565,780.695801 
	C1634.728394,780.751465 1636.673706,782.420715 1637.348022,783.835815 
	C1639.193481,787.709412 1640.489624,791.844666 1641.936768,795.698853 
	C1648.333496,795.698853 1654.368896,795.698853 1660.847534,795.698853 
	C1651.841187,773.418640 1643.002075,751.561646 1634.171021,729.701416 
	C1629.670898,718.562378 1629.674316,718.730774 1617.876953,718.519836 
	C1614.209106,718.454346 1612.776001,719.792603 1611.491821,723.041626 
	C1602.758057,745.137634 1593.793091,767.142395 1584.887939,789.170593 
	C1584.239868,790.773743 1583.473999,792.329224 1582.762817,793.906860 
	C1582.457764,793.843933 1582.152710,793.781006 1581.847656,793.718079 
	C1581.847656,789.519348 1581.847656,785.320618 1581.847656,780.459412 
	C1572.678223,780.459412 1563.980225,780.459412 1554.917480,780.459412 
	C1554.917480,759.526672 1554.917480,739.269348 1554.917480,718.626770 
	C1549.728149,718.626770 1544.912598,718.492920 1540.116211,718.737854 
	C1539.137329,718.787781 1538.230835,720.260437 1537.285522,721.973999 
M1281.000000,687.500000 
	C1281.000000,656.184021 1281.000000,624.868103 1281.000000,593.552124 
	C1281.000000,576.561523 1281.005005,559.570984 1280.995972,542.580383 
	C1280.994141,539.229370 1281.398071,535.243286 1276.601685,535.139954 
	C1271.810181,535.036560 1271.931519,538.892578 1271.996826,542.337952 
	C1272.006348,542.837524 1271.998047,543.337402 1271.998047,543.837158 
	C1271.998047,661.771729 1271.988159,779.706360 1272.044067,897.640930 
	C1272.045776,901.332031 1270.471436,906.901489 1276.615845,906.750610 
	C1282.614136,906.603333 1280.942993,901.054871 1280.946777,897.384094 
	C1281.018921,827.756104 1281.000000,758.128052 1281.000000,687.500000 
M1663.921631,746.500000 
	C1663.921631,762.920105 1663.921631,779.340271 1663.921631,796.006470 
	C1670.045410,796.006470 1675.527100,796.141541 1680.999634,795.972900 
	C1688.137085,795.752930 1695.397461,796.016174 1702.369019,794.760803 
	C1712.162598,792.997131 1718.057251,785.209106 1718.597290,775.261108 
	C1719.140503,765.253479 1714.865112,759.169800 1704.695190,755.451782 
	C1704.187012,755.266052 1703.722778,754.960205 1702.972412,754.573364 
	C1711.531982,748.724365 1713.076050,740.786926 1710.914795,731.829895 
	C1708.958740,723.723816 1702.586426,719.932556 1695.166260,719.338074 
	C1684.936401,718.518494 1674.591675,719.132629 1663.921631,719.132629 
	C1663.921631,727.883484 1663.921631,736.691711 1663.921631,746.500000 
M1728.434448,777.854004 
	C1726.607666,780.953369 1724.780762,784.052673 1722.886108,787.267029 
	C1735.169067,796.499573 1748.353394,799.420288 1762.799316,796.008057 
	C1772.547607,793.705444 1778.934570,787.829712 1780.822388,777.642456 
	C1782.726929,767.364990 1778.025269,760.266907 1769.782349,755.046814 
	C1766.575928,753.016357 1762.990967,751.589294 1759.609131,749.828613 
	C1756.228149,748.068420 1752.665894,746.544128 1749.580688,744.355896 
	C1745.609009,741.538879 1746.199463,736.181152 1750.721924,734.422668 
	C1753.221313,733.450867 1756.345581,733.104492 1758.958008,733.626953 
	C1763.275757,734.490356 1767.407227,736.284790 1772.150146,737.864441 
	C1774.259399,733.678345 1776.534424,729.163147 1778.774414,724.717407 
	C1770.473755,718.370056 1756.894897,715.347290 1747.710327,718.186584 
	C1738.562866,721.014465 1731.816406,726.675354 1730.077271,736.607544 
	C1728.408691,746.136963 1732.572021,753.855286 1741.919922,759.289612 
	C1744.926514,761.037537 1748.154175,762.401489 1751.246460,764.006897 
	C1753.600952,765.229126 1756.351196,766.125732 1758.098999,767.956238 
	C1759.840454,769.780029 1761.768433,772.815674 1761.376587,774.899170 
	C1760.977539,777.021301 1758.018677,779.911926 1755.883911,780.190491 
	C1751.796997,780.723816 1747.301392,780.284729 1743.344482,779.058105 
	C1739.196533,777.772339 1735.481689,775.088867 1731.421021,772.933105 
	C1730.535645,774.409729 1729.687134,775.824951 1728.434448,777.854004 
M1693.744141,649.460022 
	C1685.974487,649.460022 1678.204956,649.460022 1670.422363,649.460022 
	C1670.422363,643.908936 1670.422363,639.138367 1670.422363,633.969116 
	C1679.418335,633.969116 1688.184570,633.969116 1696.973145,633.969116 
	C1696.973145,628.664673 1696.973145,623.767700 1696.973145,618.984619 
	C1682.063232,618.984619 1667.506714,618.984619 1652.902588,618.984619 
	C1652.902588,644.767944 1652.902588,670.199219 1652.902588,695.780945 
	C1658.692139,695.780945 1664.276978,695.780945 1670.272705,695.780945 
	C1670.272705,685.478333 1670.272705,675.388184 1670.272705,664.873535 
	C1678.758179,664.873535 1686.837646,664.873535 1695.514404,664.873535 
	C1695.188232,659.501282 1694.889893,654.588562 1693.744141,649.460022 
M1723.551636,641.533386 
	C1723.551636,639.119873 1723.551636,636.706299 1723.551636,633.790466 
	C1733.044067,633.790466 1741.770996,633.790466 1750.399658,633.790466 
	C1750.399658,628.509766 1750.399658,623.774353 1750.399658,618.858521 
	C1735.459106,618.858521 1720.854126,618.858521 1706.258545,618.858521 
	C1706.258545,644.664429 1706.258545,670.227356 1706.258545,695.849731 
	C1712.062256,695.849731 1717.523926,695.849731 1723.489746,695.849731 
	C1723.489746,685.618469 1723.489746,675.532837 1723.489746,664.939697 
	C1732.054443,664.939697 1740.130981,664.939697 1748.265381,664.939697 
	C1748.265381,659.534973 1748.265381,654.654785 1748.265381,649.323364 
	C1739.955444,649.323364 1732.024536,649.323364 1723.551636,649.323364 
	C1723.551636,646.756104 1723.551636,644.641296 1723.551636,641.533386 
M1609.332764,618.624023 
	C1594.028198,618.624023 1578.723633,618.624023 1563.273193,618.624023 
	C1563.273193,623.936890 1563.273193,628.830994 1563.273193,634.115356 
	C1569.309937,634.115356 1575.077637,634.115356 1581.374268,634.115356 
	C1581.374268,654.896118 1581.374268,675.291931 1581.374268,695.743652 
	C1587.507080,695.743652 1593.090576,695.743652 1599.159912,695.743652 
	C1599.159912,675.093872 1599.159912,654.701477 1599.159912,633.967407 
	C1605.419434,633.967407 1611.193237,633.967407 1617.056396,633.967407 
	C1617.056396,628.715149 1617.056396,623.820068 1617.056396,618.624084 
	C1614.567993,618.624084 1612.423340,618.624084 1609.332764,618.624023 
M1623.700073,673.499817 
	C1623.700073,680.903137 1623.700073,688.306396 1623.700073,695.657349 
	C1629.917114,695.657349 1635.474609,695.657349 1640.774902,695.657349 
	C1640.774902,669.809814 1640.774902,644.307617 1640.774902,618.940674 
	C1634.944458,618.940674 1629.526245,618.940674 1623.700073,618.940674 
	C1623.700073,636.995178 1623.700073,654.747498 1623.700073,673.499817 
z"/>
<path fill="#FFFDFD" opacity="1.000000" stroke="none" 
	d="
M693.000488,773.483521 
	C800.982788,773.483521 908.465027,773.480408 1015.947327,773.501526 
	C1018.604675,773.502075 1021.310913,773.499939 1023.909729,773.968262 
	C1030.251099,775.110901 1034.927246,780.502441 1034.965454,786.936707 
	C1035.074097,805.266357 1034.869995,823.598572 1035.080444,841.926514 
	C1035.149536,847.944397 1028.428223,855.232910 1021.614319,855.221741 
	C894.635620,855.013000 767.656433,855.075317 640.677368,855.057983 
	C632.902649,855.056946 627.294189,850.053223 627.173462,842.097351 
	C626.893066,823.605469 626.887939,805.103088 627.188110,786.611755 
	C627.315796,778.747498 633.661316,773.590820 642.508911,773.524292 
	C659.171936,773.398865 675.836487,773.485229 693.000488,773.483521 
M661.548035,833.962341 
	C662.971558,835.104492 664.321472,836.356079 665.830261,837.371460 
	C678.540649,845.925476 696.356445,842.091614 704.254517,829.141296 
	C712.551575,815.536926 707.943542,797.781677 694.181335,790.328613 
	C682.863342,784.199219 668.120239,786.900696 660.118652,796.570251 
	C650.945251,807.655701 651.304077,821.921570 661.548035,833.962341 
M779.954102,818.475464 
	C779.954102,820.741577 779.954102,823.007751 779.954102,825.272888 
	C807.567261,825.272888 834.507996,825.272888 861.586609,825.272888 
	C861.586609,818.176025 861.586609,811.307922 861.586609,804.405029 
	C834.295044,804.405029 807.377380,804.405029 779.954102,804.405029 
	C779.954102,808.913147 779.954102,813.197815 779.954102,818.475464 
M926.369019,835.681519 
	C927.110107,839.547607 929.866577,840.237000 933.128540,839.741089 
	C936.471008,839.233032 937.053894,836.775085 937.039856,833.825684 
	C936.980042,821.213318 936.966370,808.600159 937.044678,795.987976 
	C937.067566,792.298462 936.596863,789.273315 931.953125,789.151062 
	C927.123901,789.023865 926.242981,791.990173 926.265137,795.984863 
	C926.336853,808.929077 926.299133,821.873840 926.369019,835.681519 
M957.046997,833.161133 
	C957.046509,820.498047 956.994568,807.834595 957.076721,795.171997 
	C957.101624,791.336304 955.756348,789.111328 951.628967,789.144775 
	C947.768921,789.176025 946.334045,791.342163 946.334778,794.890930 
	C946.337402,807.887268 946.340332,820.883606 946.329956,833.879944 
	C946.327209,837.325256 947.454834,839.745056 951.398010,839.848511 
	C955.387451,839.953247 957.272705,838.058044 957.046997,833.161133 
M977.065674,819.498718 
	C977.065186,811.341309 977.001770,803.183105 977.093079,795.026733 
	C977.133179,791.447815 975.907898,789.267334 972.031494,789.149231 
	C968.299011,789.035461 966.404663,790.825256 966.397278,794.513245 
	C966.370789,807.831421 966.368469,821.149719 966.399353,834.467896 
	C966.407837,838.131104 968.260193,839.983948 972.014709,839.849731 
	C975.505798,839.724854 977.120178,837.965088 977.076538,834.481628 
	C977.018127,829.820984 977.064331,825.158997 977.065674,819.498718 
z"/>
<path fill="#FFFDFD" opacity="1.000000" stroke="none" 
	d="
M1029.498535,665.591064 
	C1024.910767,666.722107 1020.610840,668.397949 1016.309021,668.403076 
	C898.025574,668.544861 779.741821,668.516602 661.458191,668.516296 
	C655.127502,668.516296 648.794495,668.622925 642.466736,668.485840 
	C632.302124,668.265747 627.097351,663.046204 627.048340,652.931580 
	C626.965942,635.939148 626.972290,618.945740 627.046509,601.953186 
	C627.089233,592.180664 632.451660,586.929932 642.191650,586.929382 
	C767.972168,586.922546 893.752625,586.922485 1019.533142,586.928589 
	C1030.074219,586.929138 1035.000122,591.925354 1035.003418,602.553894 
	C1035.008789,619.380127 1034.915405,636.207214 1035.059448,653.032166 
	C1035.102417,658.048401 1033.705322,662.172241 1029.498535,665.591064 
M691.926880,652.671631 
	C706.364502,645.613770 712.381470,630.209167 706.088257,616.415771 
	C699.723694,602.466248 684.288879,596.383606 670.174866,602.262878 
	C656.602722,607.916321 649.922424,623.892090 655.412231,637.567322 
	C661.129211,651.808777 676.256165,658.309265 691.926880,652.671631 
M830.499573,638.496155 
	C840.897461,638.496155 851.295288,638.496155 861.615417,638.496155 
	C861.615417,630.954346 861.615417,624.221619 861.615417,617.548035 
	C834.233276,617.548035 807.197266,617.548035 780.255859,617.548035 
	C780.255859,624.705872 780.255859,631.479187 780.255859,638.496216 
	C796.870789,638.496216 813.185181,638.496216 830.499573,638.496155 
M956.522095,604.501404 
	C954.163269,603.815308 951.760559,602.529541 949.464233,602.697693 
	C948.325989,602.781006 946.515503,605.523499 946.488403,607.088501 
	C946.252747,620.693176 946.302917,634.303894 946.388123,647.912109 
	C946.409668,651.348572 948.458191,652.946411 951.897278,652.852905 
	C955.345215,652.759033 957.071350,651.107788 957.051331,647.603333 
	C956.970825,633.500549 956.921326,619.397522 956.522095,604.501404 
M926.289062,616.538452 
	C926.292664,626.862366 926.266785,637.186340 926.315613,647.510071 
	C926.333069,651.189880 928.271790,652.980652 931.992676,652.848328 
	C935.505676,652.723328 937.037903,650.904053 937.027954,647.443298 
	C936.989563,634.122253 936.997009,620.801025 937.022217,607.479858 
	C937.028809,604.003662 935.408203,602.239380 931.910339,602.150513 
	C928.175781,602.055542 926.347107,603.888062 926.303772,607.564209 
	C926.272400,610.228149 926.292358,612.892578 926.289062,616.538452 
M966.375122,632.497192 
	C966.375977,637.158569 966.424744,641.820618 966.362854,646.481201 
	C966.310974,650.384583 967.536255,652.996033 972.027039,652.851685 
	C976.283386,652.714783 977.125000,650.121643 977.099243,646.470398 
	C977.009827,633.818665 977.010864,621.165588 977.098511,608.513855 
	C977.123779,604.863647 976.286255,602.268982 972.019226,602.147888 
	C967.537964,602.020752 966.325562,604.609680 966.358459,608.524536 
	C966.422668,616.182007 966.375977,623.840332 966.375122,632.497192 
z"/>
<path fill="#FFFEFE" opacity="1.000000" stroke="none" 
	d="
M720.000000,679.998657 
	C819.494446,679.998657 918.489136,680.092407 1017.482971,679.851562 
	C1027.223633,679.827820 1035.691772,684.885925 1035.161499,697.472534 
	C1034.495605,713.276917 1035.001831,729.130676 1035.001099,744.963135 
	C1035.000610,756.963257 1030.027100,761.997009 1018.100830,761.997986 
	C940.271851,762.004517 862.442932,762.001282 784.613953,762.001343 
	C737.783264,762.001343 690.952515,762.005554 644.121826,761.998474 
	C632.014954,761.996643 627.050659,757.091736 627.033752,745.088074 
	C627.010803,728.755676 626.996582,712.423157 627.039490,696.090820 
	C627.067261,685.531006 632.536377,680.021179 643.004395,680.008667 
	C668.502930,679.978149 694.001465,679.998718 720.000000,679.998657 
M706.937683,711.880127 
	C706.137878,710.242554 705.453308,708.535950 704.519958,706.978455 
	C697.202759,694.767151 682.563721,690.257690 669.399475,696.111084 
	C656.979431,701.633667 650.645752,716.219543 654.898804,729.505310 
	C659.359375,743.439453 674.409546,751.559387 688.240356,747.493896 
	C703.613037,742.975220 711.461853,728.492737 706.937683,711.880127 
M783.623657,710.836609 
	C782.403259,711.655090 780.169861,712.422241 780.125366,713.300293 
	C779.816467,719.395142 779.962463,725.513062 779.962463,731.726807 
	C807.500793,731.726807 834.548645,731.726807 861.694336,731.726807 
	C861.694336,724.712708 861.694336,717.972595 861.694336,710.836365 
	C835.822388,710.836365 810.210876,710.836365 783.623657,710.836609 
M966.368713,733.436829 
	C966.369141,735.600647 966.404846,737.765137 966.362427,739.928162 
	C966.287292,743.767212 967.303650,746.381409 971.956238,746.240417 
	C976.307434,746.108582 977.117920,743.646606 977.096985,740.008972 
	C977.025085,727.525940 977.010803,715.041809 977.103638,702.559021 
	C977.133179,698.586365 976.522156,695.691650 971.524414,695.756470 
	C966.646179,695.819824 966.361206,698.918457 966.365295,702.493835 
	C966.376770,712.480591 966.368958,722.467407 966.368713,733.436829 
M947.997437,696.681519 
	C947.440796,698.351440 946.419189,700.016418 946.401489,701.692078 
	C946.266052,714.478699 946.351746,727.267578 946.310913,740.055542 
	C946.298401,743.967957 947.469727,746.405884 952.027832,746.238098 
	C956.404358,746.077026 957.096130,743.518066 957.076538,739.939392 
	C957.010010,727.815979 957.055969,715.691895 957.049683,703.568115 
	C957.045715,695.968018 956.233704,695.267273 947.997437,696.681519 
M937.018250,735.399292 
	C937.017273,723.907166 937.005249,712.415039 937.021973,700.922913 
	C937.027039,697.418335 935.378906,695.841125 931.833313,695.769409 
	C928.339050,695.698669 926.430420,697.107849 926.323853,700.623169 
	C926.233093,703.618469 926.285095,706.618347 926.284302,709.616211 
	C926.281799,719.276245 926.271667,728.936279 926.290649,738.596313 
	C926.297974,742.314392 925.909729,746.174438 931.555176,746.235596 
	C937.053162,746.295227 937.184021,742.788147 937.023132,738.860168 
	C936.989075,738.028809 937.018250,737.194824 937.018250,735.399292 
z"/>
<path fill="#FFFBFB" opacity="1.000000" stroke="none" 
	d="
M1537.288330,721.525635 
	C1538.230835,720.260437 1539.137329,718.787781 1540.116211,718.737854 
	C1544.912598,718.492920 1549.728149,718.626770 1554.917480,718.626770 
	C1554.917480,739.269348 1554.917480,759.526672 1554.917480,780.459412 
	C1563.980225,780.459412 1572.678223,780.459412 1581.847656,780.459412 
	C1581.847656,785.320618 1581.847656,789.519348 1581.847656,793.718079 
	C1582.152710,793.781006 1582.457764,793.843933 1582.762817,793.906860 
	C1583.473999,792.329224 1584.239868,790.773743 1584.887939,789.170593 
	C1593.793091,767.142395 1602.758057,745.137634 1611.491821,723.041626 
	C1612.776001,719.792603 1614.209106,718.454346 1617.876953,718.519836 
	C1629.674316,718.730774 1629.670898,718.562378 1634.171021,729.701416 
	C1643.002075,751.561646 1651.841187,773.418640 1660.847534,795.698853 
	C1654.368896,795.698853 1648.333496,795.698853 1641.936768,795.698853 
	C1640.489624,791.844666 1639.193481,787.709412 1637.348022,783.835815 
	C1636.673706,782.420715 1634.728394,780.751465 1633.304565,780.695801 
	C1625.485840,780.390442 1617.642822,780.391663 1609.823730,780.692810 
	C1608.392334,780.747986 1606.460327,782.383545 1605.750244,783.789795 
	C1603.817749,787.617249 1603.473999,793.362549 1600.519043,795.256836 
	C1597.301758,797.319397 1591.856201,795.984436 1587.381958,795.994019 
	C1570.907715,796.029297 1554.433594,796.008057 1537.285522,796.008057 
	C1537.285522,771.164795 1537.285522,746.569397 1537.288330,721.525635 
M1615.111328,765.021423 
	C1619.993896,765.021423 1624.876465,765.021423 1630.277954,765.021423 
	C1627.275879,757.250305 1624.561401,750.223450 1621.513184,742.332825 
	C1618.610596,749.911621 1616.039062,756.556580 1613.567139,763.238525 
	C1613.404297,763.678894 1614.003906,764.401245 1615.111328,765.021423 
z"/>
<path fill="#FFFEFE" opacity="1.000000" stroke="none" 
	d="
M1281.000000,688.000000 
	C1281.000000,758.128052 1281.018921,827.756104 1280.946777,897.384094 
	C1280.942993,901.054871 1282.614136,906.603333 1276.615845,906.750610 
	C1270.471436,906.901489 1272.045776,901.332031 1272.044067,897.640930 
	C1271.988159,779.706360 1271.998047,661.771729 1271.998047,543.837158 
	C1271.998047,543.337402 1272.006348,542.837524 1271.996826,542.337952 
	C1271.931519,538.892578 1271.810181,535.036560 1276.601685,535.139954 
	C1281.398071,535.243286 1280.994141,539.229370 1280.995972,542.580383 
	C1281.005005,559.570984 1281.000000,576.561523 1281.000000,593.552124 
	C1281.000000,624.868103 1281.000000,656.184021 1281.000000,688.000000 
z"/>
<path fill="#FFFCFC" opacity="1.000000" stroke="none" 
	d="
M1663.921631,746.000000 
	C1663.921631,736.691711 1663.921631,727.883484 1663.921631,719.132629 
	C1674.591675,719.132629 1684.936401,718.518494 1695.166260,719.338074 
	C1702.586426,719.932556 1708.958740,723.723816 1710.914795,731.829895 
	C1713.076050,740.786926 1711.531982,748.724365 1702.972412,754.573364 
	C1703.722778,754.960205 1704.187012,755.266052 1704.695190,755.451782 
	C1714.865112,759.169800 1719.140503,765.253479 1718.597290,775.261108 
	C1718.057251,785.209106 1712.162598,792.997131 1702.369019,794.760803 
	C1695.397461,796.016174 1688.137085,795.752930 1680.999634,795.972900 
	C1675.527100,796.141541 1670.045410,796.006470 1663.921631,796.006470 
	C1663.921631,779.340271 1663.921631,762.920105 1663.921631,746.000000 
M1681.584717,765.656860 
	C1681.584717,771.082153 1681.584717,776.507446 1681.584717,782.715881 
	C1686.335083,782.178101 1690.475586,782.051758 1694.445068,781.162415 
	C1698.319214,780.294373 1700.080688,777.294067 1699.979980,773.308289 
	C1699.882080,769.437622 1698.286377,766.107056 1694.451172,765.352234 
	C1690.354248,764.545837 1686.032959,764.879944 1681.584717,765.656860 
M1690.635376,733.607422 
	C1687.794434,732.996643 1684.953491,732.385864 1681.833984,731.715271 
	C1681.833984,737.900452 1681.833984,743.281250 1681.833984,748.842163 
	C1686.740234,748.886169 1691.485474,748.921143 1693.780762,744.095520 
	C1695.532959,740.411621 1695.213623,736.597839 1690.635376,733.607422 
z"/>
<path fill="#FFFCFC" opacity="1.000000" stroke="none" 
	d="
M1728.636475,777.547119 
	C1729.687134,775.824951 1730.535645,774.409729 1731.421021,772.933105 
	C1735.481689,775.088867 1739.196533,777.772339 1743.344482,779.058105 
	C1747.301392,780.284729 1751.796997,780.723816 1755.883911,780.190491 
	C1758.018677,779.911926 1760.977539,777.021301 1761.376587,774.899170 
	C1761.768433,772.815674 1759.840454,769.780029 1758.098999,767.956238 
	C1756.351196,766.125732 1753.600952,765.229126 1751.246460,764.006897 
	C1748.154175,762.401489 1744.926514,761.037537 1741.919922,759.289612 
	C1732.572021,753.855286 1728.408691,746.136963 1730.077271,736.607544 
	C1731.816406,726.675354 1738.562866,721.014465 1747.710327,718.186584 
	C1756.894897,715.347290 1770.473755,718.370056 1778.774414,724.717407 
	C1776.534424,729.163147 1774.259399,733.678345 1772.150146,737.864441 
	C1767.407227,736.284790 1763.275757,734.490356 1758.958008,733.626953 
	C1756.345581,733.104492 1753.221313,733.450867 1750.721924,734.422668 
	C1746.199463,736.181152 1745.609009,741.538879 1749.580688,744.355896 
	C1752.665894,746.544128 1756.228149,748.068420 1759.609131,749.828613 
	C1762.990967,751.589294 1766.575928,753.016357 1769.782349,755.046814 
	C1778.025269,760.266907 1782.726929,767.364990 1780.822388,777.642456 
	C1778.934570,787.829712 1772.547607,793.705444 1762.799316,796.008057 
	C1748.353394,799.420288 1735.169067,796.499573 1722.886108,787.267029 
	C1724.780762,784.052673 1726.607666,780.953369 1728.636475,777.547119 
z"/>
<path fill="#FFFEFE" opacity="1.000000" stroke="none" 
	d="
M1694.167725,649.567932 
	C1694.889893,654.588562 1695.188232,659.501282 1695.514404,664.873535 
	C1686.837646,664.873535 1678.758179,664.873535 1670.272705,664.873535 
	C1670.272705,675.388184 1670.272705,685.478333 1670.272705,695.780945 
	C1664.276978,695.780945 1658.692139,695.780945 1652.902588,695.780945 
	C1652.902588,670.199219 1652.902588,644.767944 1652.902588,618.984619 
	C1667.506714,618.984619 1682.063232,618.984619 1696.973145,618.984619 
	C1696.973145,623.767700 1696.973145,628.664673 1696.973145,633.969116 
	C1688.184570,633.969116 1679.418335,633.969116 1670.422363,633.969116 
	C1670.422363,639.138367 1670.422363,643.908936 1670.422363,649.460022 
	C1678.204956,649.460022 1685.974487,649.460022 1694.167725,649.567932 
z"/>
<path fill="#FFFAFA" opacity="1.000000" stroke="none" 
	d="
M1723.551636,642.029907 
	C1723.551636,644.641296 1723.551636,646.756104 1723.551636,649.323364 
	C1732.024536,649.323364 1739.955444,649.323364 1748.265381,649.323364 
	C1748.265381,654.654785 1748.265381,659.534973 1748.265381,664.939697 
	C1740.130981,664.939697 1732.054443,664.939697 1723.489746,664.939697 
	C1723.489746,675.532837 1723.489746,685.618469 1723.489746,695.849731 
	C1717.523926,695.849731 1712.062256,695.849731 1706.258545,695.849731 
	C1706.258545,670.227356 1706.258545,644.664429 1706.258545,618.858521 
	C1720.854126,618.858521 1735.459106,618.858521 1750.399658,618.858521 
	C1750.399658,623.774353 1750.399658,628.509766 1750.399658,633.790466 
	C1741.770996,633.790466 1733.044067,633.790466 1723.551636,633.790466 
	C1723.551636,636.706299 1723.551636,639.119873 1723.551636,642.029907 
z"/>
<path fill="#FFFCFC" opacity="1.000000" stroke="none" 
	d="
M1609.805786,618.624023 
	C1612.423340,618.624084 1614.567993,618.624084 1617.056396,618.624084 
	C1617.056396,623.820068 1617.056396,628.715149 1617.056396,633.967407 
	C1611.193237,633.967407 1605.419434,633.967407 1599.159912,633.967407 
	C1599.159912,654.701477 1599.159912,675.093872 1599.159912,695.743652 
	C1593.090576,695.743652 1587.507080,695.743652 1581.374268,695.743652 
	C1581.374268,675.291931 1581.374268,654.896118 1581.374268,634.115356 
	C1575.077637,634.115356 1569.309937,634.115356 1563.273193,634.115356 
	C1563.273193,628.830994 1563.273193,623.936890 1563.273193,618.624023 
	C1578.723633,618.624023 1594.028198,618.624023 1609.805786,618.624023 
z"/>
<path fill="#FFFEFE" opacity="1.000000" stroke="none" 
	d="
M1623.700073,672.999756 
	C1623.700073,654.747498 1623.700073,636.995178 1623.700073,618.940674 
	C1629.526245,618.940674 1634.944458,618.940674 1640.774902,618.940674 
	C1640.774902,644.307617 1640.774902,669.809814 1640.774902,695.657349 
	C1635.474609,695.657349 1629.917114,695.657349 1623.700073,695.657349 
	C1623.700073,688.306396 1623.700073,680.903137 1623.700073,672.999756 
z"/>
<path fill="#FF1818" opacity="1.000000" stroke="none" 
	d="
M661.297058,833.706543 
	C651.304077,821.921570 650.945251,807.655701 660.118652,796.570251 
	C668.120239,786.900696 682.863342,784.199219 694.181335,790.328613 
	C707.943542,797.781677 712.551575,815.536926 704.254517,829.141296 
	C696.356445,842.091614 678.540649,845.925476 665.830261,837.371460 
	C664.321472,836.356079 662.971558,835.104492 661.297058,833.706543 
z"/>
<path fill="#FF1919" opacity="1.000000" stroke="none" 
	d="
M779.954102,817.979004 
	C779.954102,813.197815 779.954102,808.913147 779.954102,804.405029 
	C807.377380,804.405029 834.295044,804.405029 861.586609,804.405029 
	C861.586609,811.307922 861.586609,818.176025 861.586609,825.272888 
	C834.507996,825.272888 807.567261,825.272888 779.954102,825.272888 
	C779.954102,823.007751 779.954102,820.741577 779.954102,817.979004 
z"/>
<path fill="#FF1F1F" opacity="1.000000" stroke="none" 
	d="
M926.336304,835.250000 
	C926.299133,821.873840 926.336853,808.929077 926.265137,795.984863 
	C926.242981,791.990173 927.123901,789.023865 931.953125,789.151062 
	C936.596863,789.273315 937.067566,792.298462 937.044678,795.987976 
	C936.966370,808.600159 936.980042,821.213318 937.039856,833.825684 
	C937.053894,836.775085 936.471008,839.233032 933.128540,839.741089 
	C929.866577,840.237000 927.110107,839.547607 926.336304,835.250000 
z"/>
<path fill="#FF1F1F" opacity="1.000000" stroke="none" 
	d="
M957.046509,833.615601 
	C957.272705,838.058044 955.387451,839.953247 951.398010,839.848511 
	C947.454834,839.745056 946.327209,837.325256 946.329956,833.879944 
	C946.340332,820.883606 946.337402,807.887268 946.334778,794.890930 
	C946.334045,791.342163 947.768921,789.176025 951.628967,789.144775 
	C955.756348,789.111328 957.101624,791.336304 957.076721,795.171997 
	C956.994568,807.834595 957.046509,820.498047 957.046509,833.615601 
z"/>
<path fill="#FF1F1F" opacity="1.000000" stroke="none" 
	d="
M977.065674,819.998169 
	C977.064331,825.158997 977.018127,829.820984 977.076538,834.481628 
	C977.120178,837.965088 975.505798,839.724854 972.014709,839.849731 
	C968.260193,839.983948 966.407837,838.131104 966.399353,834.467896 
	C966.368469,821.149719 966.370789,807.831421 966.397278,794.513245 
	C966.404663,790.825256 968.299011,789.035461 972.031494,789.149231 
	C975.907898,789.267334 977.133179,791.447815 977.093079,795.026733 
	C977.001770,803.183105 977.065186,811.341309 977.065674,819.998169 
z"/>
<path fill="#FF1818" opacity="1.000000" stroke="none" 
	d="
M691.561279,652.808105 
	C676.256165,658.309265 661.129211,651.808777 655.412231,637.567322 
	C649.922424,623.892090 656.602722,607.916321 670.174866,602.262878 
	C684.288879,596.383606 699.723694,602.466248 706.088257,616.415771 
	C712.381470,630.209167 706.364502,645.613770 691.561279,652.808105 
z"/>
<path fill="#FF1919" opacity="1.000000" stroke="none" 
	d="
M829.999512,638.496216 
	C813.185181,638.496216 796.870789,638.496216 780.255859,638.496216 
	C780.255859,631.479187 780.255859,624.705872 780.255859,617.548035 
	C807.197266,617.548035 834.233276,617.548035 861.615417,617.548035 
	C861.615417,624.221619 861.615417,630.954346 861.615417,638.496155 
	C851.295288,638.496155 840.897461,638.496155 829.999512,638.496216 
z"/>
<path fill="#FF1F1F" opacity="1.000000" stroke="none" 
	d="
M956.691284,604.898010 
	C956.921326,619.397522 956.970825,633.500549 957.051331,647.603333 
	C957.071350,651.107788 955.345215,652.759033 951.897278,652.852905 
	C948.458191,652.946411 946.409668,651.348572 946.388123,647.912109 
	C946.302917,634.303894 946.252747,620.693176 946.488403,607.088501 
	C946.515503,605.523499 948.325989,602.781006 949.464233,602.697693 
	C951.760559,602.529541 954.163269,603.815308 956.691284,604.898010 
z"/>
<path fill="#FF1F1F" opacity="1.000000" stroke="none" 
	d="
M926.289246,616.047607 
	C926.292358,612.892578 926.272400,610.228149 926.303772,607.564209 
	C926.347107,603.888062 928.175781,602.055542 931.910339,602.150513 
	C935.408203,602.239380 937.028809,604.003662 937.022217,607.479858 
	C936.997009,620.801025 936.989563,634.122253 937.027954,647.443298 
	C937.037903,650.904053 935.505676,652.723328 931.992676,652.848328 
	C928.271790,652.980652 926.333069,651.189880 926.315613,647.510071 
	C926.266785,637.186340 926.292664,626.862366 926.289246,616.047607 
z"/>
<path fill="#FF1F1F" opacity="1.000000" stroke="none" 
	d="
M966.375122,631.997803 
	C966.375977,623.840332 966.422668,616.182007 966.358459,608.524536 
	C966.325562,604.609680 967.537964,602.020752 972.019226,602.147888 
	C976.286255,602.268982 977.123779,604.863647 977.098511,608.513855 
	C977.010864,621.165588 977.009827,633.818665 977.099243,646.470398 
	C977.125000,650.121643 976.283386,652.714783 972.027039,652.851685 
	C967.536255,652.996033 966.310974,650.384583 966.362854,646.481201 
	C966.424744,641.820618 966.375977,637.158569 966.375122,631.997803 
z"/>
<path fill="#FF1818" opacity="1.000000" stroke="none" 
	d="
M707.029907,712.266968 
	C711.461853,728.492737 703.613037,742.975220 688.240356,747.493896 
	C674.409546,751.559387 659.359375,743.439453 654.898804,729.505310 
	C650.645752,716.219543 656.979431,701.633667 669.399475,696.111084 
	C682.563721,690.257690 697.202759,694.767151 704.519958,706.978455 
	C705.453308,708.535950 706.137878,710.242554 707.029907,712.266968 
z"/>
<path fill="#FF1616" opacity="1.000000" stroke="none" 
	d="
M784.111511,710.836487 
	C810.210876,710.836365 835.822388,710.836365 861.694336,710.836365 
	C861.694336,717.972595 861.694336,724.712708 861.694336,731.726807 
	C834.548645,731.726807 807.500793,731.726807 779.962463,731.726807 
	C779.962463,725.513062 779.816467,719.395142 780.125366,713.300293 
	C780.169861,712.422241 782.403259,711.655090 784.111511,710.836487 
z"/>
<path fill="#FF1F1F" opacity="1.000000" stroke="none" 
	d="
M966.368774,732.945496 
	C966.368958,722.467407 966.376770,712.480591 966.365295,702.493835 
	C966.361206,698.918457 966.646179,695.819824 971.524414,695.756470 
	C976.522156,695.691650 977.133179,698.586365 977.103638,702.559021 
	C977.010803,715.041809 977.025085,727.525940 977.096985,740.008972 
	C977.117920,743.646606 976.307434,746.108582 971.956238,746.240417 
	C967.303650,746.381409 966.287292,743.767212 966.362427,739.928162 
	C966.404846,737.765137 966.369141,735.600647 966.368774,732.945496 
z"/>
<path fill="#FF1F1F" opacity="1.000000" stroke="none" 
	d="
M948.292969,696.439697 
	C956.233704,695.267273 957.045715,695.968018 957.049683,703.568115 
	C957.055969,715.691895 957.010010,727.815979 957.076538,739.939392 
	C957.096130,743.518066 956.404358,746.077026 952.027832,746.238098 
	C947.469727,746.405884 946.298401,743.967957 946.310913,740.055542 
	C946.351746,727.267578 946.266052,714.478699 946.401489,701.692078 
	C946.419189,700.016418 947.440796,698.351440 948.292969,696.439697 
z"/>
<path fill="#FF1F1F" opacity="1.000000" stroke="none" 
	d="
M937.018250,735.880676 
	C937.018250,737.194824 936.989075,738.028809 937.023132,738.860168 
	C937.184021,742.788147 937.053162,746.295227 931.555176,746.235596 
	C925.909729,746.174438 926.297974,742.314392 926.290649,738.596313 
	C926.271667,728.936279 926.281799,719.276245 926.284302,709.616211 
	C926.285095,706.618347 926.233093,703.618469 926.323853,700.623169 
	C926.430420,697.107849 928.339050,695.698669 931.833313,695.769409 
	C935.378906,695.841125 937.027039,697.418335 937.021973,700.922913 
	C937.005249,712.415039 937.017273,723.907166 937.018250,735.880676 
z"/>
<path fill="#FF1F1F" opacity="1.000000" stroke="none" 
	d="
M1614.680176,765.006958 
	C1614.003906,764.401245 1613.404297,763.678894 1613.567139,763.238525 
	C1616.039062,756.556580 1618.610596,749.911621 1621.513184,742.332825 
	C1624.561401,750.223450 1627.275879,757.250305 1630.277954,765.021423 
	C1624.876465,765.021423 1619.993896,765.021423 1614.680176,765.006958 
z"/>
<path fill="#FF1919" opacity="1.000000" stroke="none" 
	d="
M1681.697144,765.186523 
	C1686.032959,764.879944 1690.354248,764.545837 1694.451172,765.352234 
	C1698.286377,766.107056 1699.882080,769.437622 1699.979980,773.308289 
	C1700.080688,777.294067 1698.319214,780.294373 1694.445068,781.162415 
	C1690.475586,782.051758 1686.335083,782.178101 1681.584717,782.715881 
	C1681.584717,776.507446 1681.584717,771.082153 1681.697144,765.186523 
z"/>
<path fill="#FF1F1F" opacity="1.000000" stroke="none" 
	d="
M1690.980103,733.788513 
	C1695.213623,736.597839 1695.532959,740.411621 1693.780762,744.095520 
	C1691.485474,748.921143 1686.740234,748.886169 1681.833984,748.842163 
	C1681.833984,743.281250 1681.833984,737.900452 1681.833984,731.715271 
	C1684.953491,732.385864 1687.794434,732.996643 1690.980103,733.788513 
z"/>
</svg>